<?xml version="1.0" encoding="utf-8"?>
<!-- Generator: Adobe Illustrator 19.2.1, SVG Export Plug-In . SVG Version: 6.00 Build 0)  -->
<svg version="1.1" xmlns="http://www.w3.org/2000/svg" xmlns:xlink="http://www.w3.org/1999/xlink" x="0px" y="0px"
	 viewBox="0 0 1000 679.9" style="enable-background:new 0 0 1000 679.9;" xml:space="preserve">
<style type="text/css">
	.st0{fill:#FFFFFF;}
</style>
<g id="Layer_1">
</g>
<g id="Layer_3">
</g>
<g id="Layer_2">
	<g>
		<g>
			<path class="st0" d="M878.8,360.2c2,123.5-92.3,218.9-203,230.5c-62.5,6.5-119.1-9.6-168.2-49c-52.1-41.8-81.2-96.9-85.1-163.4
				c-7.9-136.4,96.8-238.5,218.5-243.2C770.7,130.1,877.3,231.8,878.8,360.2z M489.2,364.9c0.6,89.1,75.2,166.5,174,159.4
				c82.4-5.9,152.2-75.3,148.5-167.8c-3.4-85.5-72.9-156.7-166.3-154.3C558.2,204.6,488.9,275.9,489.2,364.9z"/>
			<path class="st0" d="M545.6,260.1c5.8,7.1,10.7,14.4,16.9,20.5c10.5,10.4,21.9,19.7,36.8,24.1c13.5,4,28.6-0.2,35.8-15.7
				c6.1-13.1,6.8-26.7,5.1-40.6c-1.3-10.4-3.4-20.6-5.3-31.5c10.4,0,21.2-1.1,31.6,0.3c12.1,1.6,23.9,5.4,35.7,8.4
				c1.9,0.5,3.6,1.5,5.4,2.3c2.5,1.2,5,2.3,7.5,3.5c-1.6,3-2.9,6.1-4.7,8.9c-11.2,16.2-19.2,33.7-20.2,53.5
				c-0.5,10.3,3,19.7,11.6,26.2c8.2,6.2,17.9,7,27.6,5.7c18.5-2.5,35.1-9.9,50.4-20.6c1.4-1,3-1.9,4.8-3
				c11.7,26.5,15.5,53.6,11.8,82.2c-8.9-2.1-17.8-4.5-26.8-6.1c-13.7-2.4-27.5-3.1-40.9,1.3c-21.2,7-27.2,23.3-19.8,42.7
				c6.8,17.7,19.1,31.6,33.8,43.3c2.1,1.7,4,3.6,7.1,6.4c-8.3,5.8-15.9,11.5-23.8,16.7c-13.9,9.1-29.4,14.4-45.5,18.1
				c-4.9,1.1-5.9-0.5-5.9-5c-0.2-18.3-2.9-36.1-11.7-52.4c-5.2-9.7-12-17.8-23.7-19.9c-6.6-1.2-12.7-0.3-18.6,2.9
				c-12,6.5-21,16.1-27.6,27.9c-5.4,9.6-10.1,19.5-15.5,30c-24.4-13.6-42.7-33.2-56.8-58.4c3.1-1.4,5.9-2.8,8.7-3.8
				c17.7-6.2,34.3-15,46.3-29.3c14.3-17,13.7-35.9-7.9-50c-18.4-12-39.4-14.3-61.4-15.5C512.5,305.1,525.9,281.1,545.6,260.1z
				 M651.2,317.5c-21.2-0.1-44.9,16.4-45.4,44.8c-0.4,22.3,17.3,43.3,41.4,44.9c25.7,1.7,47.7-16.7,48.5-43.9
				C696.4,340.8,679.3,318.4,651.2,317.5z"/>
			<path class="st0" d="M650.5,377.1c-7.6-0.4-15.3-8-14.7-14.6c0.7-7.9,8.2-15.1,15.4-14.7c8.4,0.5,14.3,8.1,14.4,14.6
				C665.6,370.4,658,377.4,650.5,377.1z"/>
			<path class="st0" d="M619.3,362.4c5.2,0.2,8.8,3.9,8.7,8.9c-0.1,4-4.9,7.9-9.2,7.7c-5-0.3-8.3-3.6-8.1-8.1
				C610.8,365.8,614.5,362.2,619.3,362.4z"/>
			<path class="st0" d="M672.1,373.2c0.2-5.2,4.1-8.4,9.6-8.1c3.6,0.2,7.7,4.8,7.5,8.3c-0.3,4.6-4.5,9-8.4,8.9
				C675.2,382.2,671.9,378.7,672.1,373.2z"/>
			<path class="st0" d="M643.1,393.3c-0.2-4.4,3.7-8.3,8.3-8.6c4-0.2,8.8,4.3,9,8.2c0.2,3.9-4.6,8.9-8.5,8.9
				C646.3,401.9,643.3,398.9,643.1,393.3z"/>
			<path class="st0" d="M639,336.7c-0.1,3.9-4.7,8-9,8c-3.7,0-8.5-5.2-8.3-8.9c0.3-4.2,5-8.6,9-8.3
				C635.5,327.8,639.1,331.7,639,336.7z"/>
			<path class="st0" d="M668,345.5c-3.8,0.1-8.3-4.7-8.4-8.9c-0.1-3.8,4.8-8.4,9-8.3c4.1,0,8.3,4.5,8.3,8.9
				C676.9,341.2,672.5,345.3,668,345.5z"/>
		</g>
		<path class="st0" d="M878.5,377.1c0,0-101.3,257.4-310.6,155.8l-130.9-86.3c0,0-184.1-84.7-315.8,41.7c0,0,135.1-127.6,404.9,66.8
			c0,0,21,22.3-73.3,27.5c0,0,89.8,39.8,177.1,24.1c12.6-2.3,24.5-7.4,37.3-8.1c25.8-1.4,53.8,5.5,9.6,55.2
			C676.9,654,868,544.5,878.5,377.1z"/>
	</g>
</g>
</svg>
